<svg width="76" height="14" viewBox="0 0 76 14" fill="none" xmlns="http://www.w3.org/2000/svg">
<path d="M6.33334 6.41677L11 7.58335L15.6667 6.41669M6.33334 6.41677L11 1.16669M6.33334 6.41677L11 5.25007M15.6667 6.41669L11 1.16669M15.6667 6.41669L11 5.25007M11 1.16669V5.25007M7.20834 8.75002L11.0001 12.8334L14.7917 8.75002L11 9.62502L7.20834 8.75002Z" stroke="#6F4FF2" stroke-linecap="round" stroke-linejoin="round"/>
<path d="M29.9716 2.77273V11.5H28.9148V3.88068H28.8636L26.733 5.29545V4.22159L28.9148 2.77273H29.9716ZM32.5959 11.5682C32.3857 11.5682 32.2053 11.4929 32.0547 11.3423C31.9041 11.1918 31.8289 11.0114 31.8289 10.8011C31.8289 10.5909 31.9041 10.4105 32.0547 10.2599C32.2053 10.1094 32.3857 10.0341 32.5959 10.0341C32.8061 10.0341 32.9865 10.1094 33.1371 10.2599C33.2877 10.4105 33.363 10.5909 33.363 10.8011C33.363 10.9403 33.3274 11.0682 33.2564 11.1847C33.1882 11.3011 33.0959 11.3949 32.9794 11.4659C32.8658 11.5341 32.738 11.5682 32.5959 11.5682ZM37.6513 11.6193C37.0888 11.6193 36.5874 11.5227 36.1471 11.3295C35.7096 11.1364 35.3616 10.8679 35.103 10.5241C34.8474 10.1776 34.7082 9.77557 34.6854 9.31818H35.7593C35.782 9.59943 35.8786 9.84233 36.0491 10.0469C36.2195 10.2486 36.4425 10.4048 36.7181 10.5156C36.9937 10.6264 37.2991 10.6818 37.6343 10.6818C38.0093 10.6818 38.3417 10.6165 38.6314 10.4858C38.9212 10.3551 39.1485 10.1733 39.3133 9.94034C39.478 9.70739 39.5604 9.4375 39.5604 9.13068C39.5604 8.80966 39.4809 8.52699 39.3218 8.28267C39.1627 8.03551 38.9297 7.84233 38.6229 7.70312C38.3161 7.56392 37.9411 7.49432 37.4979 7.49432H36.7991V6.55682H37.4979C37.8445 6.55682 38.1485 6.49432 38.4099 6.36932C38.6741 6.24432 38.88 6.06818 39.0278 5.84091C39.1783 5.61364 39.2536 5.34659 39.2536 5.03977C39.2536 4.74432 39.1883 4.48722 39.0576 4.26847C38.9269 4.04972 38.7422 3.87926 38.5036 3.7571C38.2678 3.63494 37.9894 3.57386 37.6684 3.57386C37.3672 3.57386 37.0832 3.62926 36.8161 3.74006C36.5519 3.84801 36.336 4.00568 36.1684 4.21307C36.0008 4.41761 35.9099 4.66477 35.8957 4.95455H34.8729C34.89 4.49716 35.0278 4.09659 35.2863 3.75284C35.5448 3.40625 35.8829 3.13636 36.3005 2.94318C36.7209 2.75 37.1826 2.65341 37.6854 2.65341C38.2252 2.65341 38.6883 2.76278 39.0746 2.98153C39.461 3.19744 39.7579 3.48295 39.9653 3.83807C40.1726 4.19318 40.2763 4.5767 40.2763 4.98864C40.2763 5.48011 40.1471 5.89915 39.8886 6.24574C39.6329 6.59233 39.2849 6.83239 38.8445 6.96591V7.03409C39.3957 7.125 39.8261 7.35937 40.1357 7.73722C40.4454 8.11222 40.6002 8.5767 40.6002 9.13068C40.6002 9.60511 40.4709 10.0312 40.2124 10.4091C39.9567 10.7841 39.6073 11.0795 39.1641 11.2955C38.7209 11.5114 38.2167 11.6193 37.6513 11.6193ZM44.9504 11.6193C44.4504 11.6193 44.0001 11.5199 43.5995 11.321C43.1989 11.1222 42.8779 10.8494 42.6364 10.5028C42.395 10.1562 42.2629 9.76136 42.2401 9.31818H43.2629C43.3026 9.71307 43.4816 10.0398 43.7998 10.2983C44.1208 10.554 44.5043 10.6818 44.9504 10.6818C45.3083 10.6818 45.6265 10.598 45.9049 10.4304C46.1862 10.2628 46.4063 10.0327 46.5654 9.74006C46.7274 9.4446 46.8083 9.1108 46.8083 8.73864C46.8083 8.35795 46.7245 8.01847 46.5569 7.72017C46.3921 7.41903 46.1649 7.18182 45.8751 7.00852C45.5853 6.83523 45.2543 6.74716 44.8822 6.74432C44.6151 6.74148 44.341 6.78267 44.0597 6.8679C43.7785 6.95028 43.547 7.05682 43.3651 7.1875L42.3765 7.06818L42.9049 2.77273H47.439V3.71023H43.7913L43.4845 6.28409H43.5356C43.7146 6.14205 43.939 6.02415 44.2089 5.9304C44.4788 5.83665 44.76 5.78977 45.0526 5.78977C45.5867 5.78977 46.0626 5.91761 46.4802 6.1733C46.9007 6.42614 47.2302 6.77273 47.4688 7.21307C47.7103 7.65341 47.8311 8.15625 47.8311 8.72159C47.8311 9.27841 47.7061 9.77557 47.4561 10.2131C47.2089 10.6477 46.868 10.9915 46.4333 11.2443C45.9987 11.4943 45.5043 11.6193 44.9504 11.6193ZM52.8123 11.5V2.77273H58.0793V3.71023H53.8691V6.65909H57.8066V7.59659H53.8691V10.5625H58.1475V11.5H52.8123ZM59.3869 3.71023V2.77273H65.9323V3.71023H63.188V11.5H62.1312V3.71023H59.3869ZM67.4434 11.5V2.77273H68.5002V6.65909H73.1536V2.77273H74.2104V11.5H73.1536V7.59659H68.5002V11.5H67.4434Z" fill="#202020"/>
</svg>
